<svg xmlns="http://www.w3.org/2000/svg" xmlns:xlink="http://www.w3.org/1999/xlink" width="500" zoomAndPan="magnify" viewBox="0 0 375 374.999991" height="500" preserveAspectRatio="xMidYMid meet" version="1.0"><defs><clipPath id="f462246767"><path d="M 25 25 L 354.84375 25 L 354.84375 354.84375 L 25 354.84375 Z M 25 25 " clip-rule="nonzero"/></clipPath><clipPath id="12d7ce733c"><path d="M 20.34375 288 L 102 288 L 102 328 L 20.34375 328 Z M 20.34375 288 " clip-rule="nonzero"/></clipPath><clipPath id="b247d4f73a"><path d="M 20.34375 20.34375 L 328 20.34375 L 328 276 L 20.34375 276 Z M 20.34375 20.34375 " clip-rule="nonzero"/></clipPath></defs><path fill="#2dad9d" d="M 29.671875 319.175781 L 57.015625 346.519531 L 56.429688 345.949219 C 59.410156 348.929688 63.515625 350.761719 68.058594 350.761719 L 334.324219 350.761719 C 338.867188 350.761719 342.972656 348.929688 345.949219 345.949219 C 348.929688 342.972656 350.761719 338.867188 350.761719 334.324219 L 350.761719 68.058594 C 350.761719 63.515625 348.929688 59.410156 345.949219 56.429688 L 346.304688 56.660156 L 319.246094 29.671875 " fill-opacity="1" fill-rule="nonzero"/><g clip-path="url(#f462246767)"><path fill="#000000" d="M 334.324219 354.84375 L 68.058594 354.84375 C 63 354.84375 58.226562 353.019531 54.472656 349.703125 C 54.378906 349.621094 54.28125 349.539062 54.1875 349.457031 L 54.039062 349.308594 C 53.875 349.160156 53.710938 348.996094 53.546875 348.832031 C 53.464844 348.75 53.386719 348.667969 53.316406 348.574219 L 26.789062 322.046875 C 25.195312 320.453125 25.195312 317.871094 26.789062 316.28125 C 28.378906 314.6875 30.960938 314.6875 32.554688 316.28125 L 59.75 343.460938 C 62.03125 345.542969 64.957031 346.671875 68.058594 346.671875 L 334.324219 346.671875 C 337.628906 346.671875 340.730469 345.378906 343.066406 343.054688 C 345.40625 340.730469 346.683594 337.613281 346.683594 334.308594 L 346.683594 68.058594 C 346.683594 64.753906 345.390625 61.652344 343.066406 59.3125 C 342.878906 59.125 342.699219 58.90625 342.550781 58.6875 L 316.363281 32.554688 C 314.769531 30.960938 314.757812 28.378906 316.363281 26.789062 C 317.953125 25.195312 320.535156 25.183594 322.128906 26.789062 L 349.1875 53.777344 C 349.429688 54.023438 349.648438 54.308594 349.824219 54.59375 C 353.074219 58.320312 354.855469 63.054688 354.855469 68.058594 L 354.855469 334.324219 C 354.855469 339.804688 352.722656 344.957031 348.847656 348.832031 C 344.972656 352.707031 339.816406 354.84375 334.335938 354.84375 Z M 334.324219 354.84375 " fill-opacity="1" fill-rule="nonzero"/></g><path fill="#ffffff" d="M 40.863281 24.421875 L 307.128906 24.421875 C 307.667969 24.421875 308.203125 24.449219 308.742188 24.5 C 309.277344 24.554688 309.808594 24.632812 310.335938 24.738281 C 310.863281 24.84375 311.386719 24.972656 311.902344 25.128906 C 312.417969 25.285156 312.921875 25.46875 313.421875 25.671875 C 313.917969 25.878906 314.402344 26.109375 314.878906 26.363281 C 315.351562 26.617188 315.816406 26.894531 316.261719 27.191406 C 316.710938 27.492188 317.140625 27.8125 317.558594 28.152344 C 317.972656 28.496094 318.371094 28.855469 318.753906 29.238281 C 319.132812 29.617188 319.496094 30.015625 319.835938 30.433594 C 320.179688 30.847656 320.5 31.28125 320.796875 31.726562 C 321.097656 32.175781 321.375 32.636719 321.628906 33.113281 C 321.882812 33.585938 322.109375 34.074219 322.316406 34.570312 C 322.523438 35.066406 322.703125 35.574219 322.859375 36.089844 C 323.015625 36.605469 323.148438 37.125 323.253906 37.65625 C 323.359375 38.183594 323.4375 38.714844 323.488281 39.25 C 323.542969 39.785156 323.570312 40.324219 323.570312 40.863281 L 323.570312 307.128906 C 323.570312 307.667969 323.542969 308.203125 323.488281 308.742188 C 323.4375 309.277344 323.359375 309.808594 323.253906 310.335938 C 323.148438 310.863281 323.015625 311.386719 322.859375 311.902344 C 322.703125 312.417969 322.523438 312.921875 322.316406 313.421875 C 322.109375 313.917969 321.882812 314.402344 321.628906 314.878906 C 321.375 315.351562 321.097656 315.816406 320.796875 316.261719 C 320.5 316.710938 320.179688 317.140625 319.835938 317.558594 C 319.496094 317.972656 319.132812 318.371094 318.753906 318.753906 C 318.371094 319.132812 317.972656 319.496094 317.558594 319.835938 C 317.140625 320.179688 316.710938 320.5 316.261719 320.796875 C 315.816406 321.097656 315.351562 321.375 314.878906 321.628906 C 314.402344 321.882812 313.917969 322.109375 313.421875 322.316406 C 312.921875 322.523438 312.417969 322.703125 311.902344 322.859375 C 311.386719 323.015625 310.863281 323.148438 310.335938 323.253906 C 309.808594 323.359375 309.277344 323.4375 308.742188 323.488281 C 308.203125 323.542969 307.667969 323.570312 307.128906 323.570312 L 40.863281 323.570312 C 40.324219 323.570312 39.785156 323.542969 39.25 323.488281 C 38.714844 323.4375 38.183594 323.359375 37.65625 323.253906 C 37.125 323.148438 36.605469 323.015625 36.089844 322.859375 C 35.574219 322.703125 35.066406 322.523438 34.570312 322.316406 C 34.074219 322.109375 33.585938 321.882812 33.113281 321.628906 C 32.636719 321.375 32.175781 321.097656 31.726562 320.796875 C 31.28125 320.5 30.847656 320.179688 30.433594 319.835938 C 30.015625 319.496094 29.617188 319.132812 29.238281 318.753906 C 28.855469 318.371094 28.496094 317.972656 28.152344 317.558594 C 27.8125 317.140625 27.492188 316.710938 27.191406 316.261719 C 26.894531 315.816406 26.617188 315.351562 26.363281 314.878906 C 26.109375 314.402344 25.878906 313.917969 25.671875 313.421875 C 25.46875 312.921875 25.285156 312.417969 25.128906 311.902344 C 24.972656 311.386719 24.84375 310.863281 24.738281 310.335938 C 24.632812 309.808594 24.554688 309.277344 24.5 308.742188 C 24.449219 308.203125 24.421875 307.667969 24.421875 307.128906 L 24.421875 40.863281 C 24.421875 40.324219 24.449219 39.785156 24.5 39.25 C 24.554688 38.714844 24.632812 38.183594 24.738281 37.65625 C 24.84375 37.125 24.972656 36.605469 25.128906 36.089844 C 25.285156 35.574219 25.46875 35.066406 25.671875 34.570312 C 25.878906 34.074219 26.109375 33.585938 26.363281 33.113281 C 26.617188 32.636719 26.894531 32.175781 27.191406 31.726562 C 27.492188 31.28125 27.8125 30.847656 28.152344 30.433594 C 28.496094 30.015625 28.855469 29.617188 29.238281 29.238281 C 29.617188 28.855469 30.015625 28.496094 30.433594 28.152344 C 30.847656 27.8125 31.28125 27.492188 31.726562 27.191406 C 32.175781 26.894531 32.636719 26.617188 33.113281 26.363281 C 33.585938 26.109375 34.074219 25.878906 34.570312 25.671875 C 35.066406 25.46875 35.574219 25.285156 36.089844 25.128906 C 36.605469 24.972656 37.125 24.84375 37.65625 24.738281 C 38.183594 24.632812 38.714844 24.554688 39.25 24.5 C 39.785156 24.449219 40.324219 24.421875 40.863281 24.421875 Z M 40.863281 24.421875 " fill-opacity="1" fill-rule="nonzero"/><g clip-path="url(#12d7ce733c)"><path fill="#000000" d="M 97.507812 327.648438 L 40.863281 327.648438 C 29.546875 327.648438 20.34375 318.441406 20.34375 307.128906 L 20.34375 292.457031 C 20.34375 290.199219 22.164062 288.378906 24.421875 288.378906 C 26.679688 288.378906 28.5 290.199219 28.5 292.457031 L 28.5 307.128906 C 28.5 313.941406 34.050781 319.488281 40.863281 319.488281 L 97.507812 319.488281 C 99.765625 319.488281 101.589844 321.3125 101.589844 323.570312 C 101.589844 325.824219 99.765625 327.648438 97.507812 327.648438 Z M 97.507812 327.648438 " fill-opacity="1" fill-rule="nonzero"/></g><path fill="#000000" d="M 307.128906 327.648438 L 122.351562 327.648438 C 120.09375 327.648438 118.273438 325.824219 118.273438 323.570312 C 118.273438 321.3125 120.09375 319.488281 122.351562 319.488281 L 307.128906 319.488281 C 313.941406 319.488281 319.488281 313.941406 319.488281 307.128906 L 319.488281 136.425781 C 319.488281 134.167969 321.3125 132.347656 323.570312 132.347656 C 325.824219 132.347656 327.648438 134.167969 327.648438 136.425781 L 327.648438 307.128906 C 327.648438 318.441406 318.441406 327.648438 307.128906 327.648438 Z M 307.128906 327.648438 " fill-opacity="1" fill-rule="nonzero"/><g clip-path="url(#b247d4f73a)"><path fill="#000000" d="M 24.421875 275.515625 C 22.164062 275.515625 20.34375 273.691406 20.34375 271.433594 L 20.34375 40.863281 C 20.34375 29.546875 29.546875 20.34375 40.863281 20.34375 L 307.128906 20.34375 C 318.441406 20.34375 327.648438 29.546875 327.648438 40.863281 L 327.648438 103.816406 C 327.648438 106.074219 325.824219 107.898438 323.570312 107.898438 C 321.3125 107.898438 319.488281 106.074219 319.488281 103.816406 L 319.488281 40.863281 C 319.488281 34.050781 313.941406 28.5 307.128906 28.5 L 40.863281 28.5 C 34.050781 28.5 28.5 34.050781 28.5 40.863281 L 28.5 271.433594 C 28.5 273.691406 26.679688 275.515625 24.421875 275.515625 Z M 24.421875 275.515625 " fill-opacity="1" fill-rule="nonzero"/></g></svg>