<svg xmlns="http://www.w3.org/2000/svg" xmlns:xlink="http://www.w3.org/1999/xlink" width="500" zoomAndPan="magnify" viewBox="0 0 375 374.999991" height="500" preserveAspectRatio="xMidYMid meet" version="1.0"><defs><g/><clipPath id="3278e09f7c"><path d="M 70.382812 98.347656 L 345.894531 98.347656 L 345.894531 286.539062 L 70.382812 286.539062 Z M 70.382812 98.347656 " clip-rule="nonzero"/></clipPath><clipPath id="7efb26ff6d"><path d="M 56.101562 88 L 316 88 L 316 253 L 56.101562 253 Z M 56.101562 88 " clip-rule="nonzero"/></clipPath></defs><g clip-path="url(#3278e09f7c)"><path fill="#05a63d" d="M 173.167969 286.707031 L 75.378906 245.636719 L 70.394531 189.980469 L 107.285156 144.820312 L 334.019531 98.507812 L 345.894531 116.367188 L 305.421875 213.628906 L 155.304688 239.546875 L 173.167969 286.707031 " fill-opacity="1" fill-rule="nonzero"/></g><path fill="#f2cb05" d="M 149.914062 276.949219 L 67.140625 242.1875 L 62.160156 186.535156 L 99.046875 141.375 L 334.019531 98.507812 L 287.152344 211.136719 L 133.734375 238.402344 L 149.914062 276.949219 " fill-opacity="1" fill-rule="nonzero"/><path fill="#0c0c0c" d="M 295.554688 130.164062 C 295.320312 130.164062 295.085938 130.113281 294.859375 130.011719 C 294.027344 129.628906 293.660156 128.640625 294.046875 127.808594 L 311.890625 88.984375 C 312.273438 88.148438 313.257812 87.785156 314.09375 88.167969 C 314.929688 88.550781 315.292969 89.539062 314.910156 90.371094 L 297.0625 129.195312 C 296.785156 129.804688 296.183594 130.164062 295.554688 130.164062 " fill-opacity="1" fill-rule="nonzero"/><g clip-path="url(#7efb26ff6d)"><path fill="#0c0c0c" d="M 62.15625 252.84375 C 61.289062 252.84375 60.558594 252.167969 60.5 251.289062 L 56.179688 183.269531 L 56.582031 182.769531 L 101.9375 126.332031 L 102.546875 126.222656 L 313.105469 88.042969 C 314.015625 87.875 314.871094 88.480469 315.035156 89.382812 C 315.199219 90.285156 314.597656 91.148438 313.695312 91.3125 L 103.75 129.378906 L 59.574219 184.347656 L 63.816406 251.078125 C 63.875 251.992188 63.179688 252.78125 62.265625 252.839844 C 62.230469 252.84375 62.195312 252.84375 62.15625 252.84375 " fill-opacity="1" fill-rule="nonzero"/></g><path fill="#0c0c0c" d="M 62.15625 252.84375 C 61.367188 252.84375 60.667969 252.28125 60.523438 251.476562 C 60.363281 250.574219 60.964844 249.707031 61.867188 249.546875 L 155.011719 232.914062 C 155.921875 232.753906 156.777344 233.355469 156.941406 234.257812 C 157.101562 235.160156 156.5 236.023438 155.597656 236.183594 L 62.453125 252.820312 C 62.351562 252.835938 62.253906 252.84375 62.15625 252.84375 " fill-opacity="1" fill-rule="nonzero"/><path fill="#0c0c0c" d="M 81.277344 260.007812 L 61.582031 252.742188 C 60.722656 252.425781 60.285156 251.46875 60.601562 250.609375 C 60.917969 249.746094 61.875 249.308594 62.734375 249.625 L 81.582031 256.578125 L 290.707031 219.453125 L 330.726562 121.539062 L 311.980469 90.535156 C 311.503906 89.75 311.753906 88.730469 312.539062 88.257812 C 313.328125 87.777344 314.347656 88.03125 314.820312 88.816406 L 334.433594 121.25 L 293.089844 222.402344 L 292.1875 222.5625 L 81.277344 260.007812 " fill-opacity="1" fill-rule="nonzero"/><path fill="#0c0c0c" d="M 218.84375 244.527344 C 218.050781 244.527344 217.351562 243.960938 217.210938 243.15625 C 217.050781 242.253906 217.652344 241.390625 218.558594 241.230469 L 223.464844 240.363281 C 224.363281 240.195312 225.226562 240.808594 225.386719 241.710938 C 225.546875 242.613281 224.945312 243.476562 224.042969 243.632812 L 219.132812 244.503906 C 219.035156 244.519531 218.9375 244.527344 218.84375 244.527344 " fill-opacity="1" fill-rule="nonzero"/><path fill="#0c0c0c" d="M 287.816406 232.328125 C 287.023438 232.328125 286.324219 231.765625 286.183594 230.957031 C 286.023438 230.054688 286.625 229.191406 287.527344 229.035156 L 296.679688 227.414062 C 297.578125 227.25 298.445312 227.859375 298.605469 228.761719 C 298.765625 229.667969 298.160156 230.527344 297.257812 230.683594 L 288.105469 232.304688 C 288.007812 232.324219 287.910156 232.328125 287.816406 232.328125 Z M 269.511719 235.566406 C 268.71875 235.566406 268.019531 235 267.878906 234.195312 C 267.714844 233.292969 268.320312 232.429688 269.222656 232.273438 L 278.375 230.652344 C 279.277344 230.488281 280.140625 231.097656 280.300781 232 C 280.460938 232.902344 279.859375 233.765625 278.953125 233.921875 L 269.800781 235.542969 C 269.703125 235.558594 269.605469 235.566406 269.511719 235.566406 Z M 251.207031 238.804688 C 250.414062 238.804688 249.714844 238.238281 249.574219 237.433594 C 249.414062 236.527344 250.015625 235.667969 250.917969 235.507812 L 260.070312 233.890625 C 260.96875 233.722656 261.835938 234.332031 261.996094 235.234375 C 262.15625 236.140625 261.550781 237 260.648438 237.160156 L 251.496094 238.777344 C 251.398438 238.796875 251.304688 238.804688 251.207031 238.804688 Z M 232.902344 242.042969 C 232.109375 242.042969 231.410156 241.476562 231.269531 240.667969 C 231.109375 239.765625 231.710938 238.90625 232.613281 238.746094 L 241.765625 237.125 C 242.667969 236.960938 243.53125 237.570312 243.691406 238.472656 C 243.851562 239.375 243.246094 240.238281 242.34375 240.398438 L 233.191406 242.015625 C 233.09375 242.03125 233 242.042969 232.902344 242.042969 " fill-opacity="1" fill-rule="nonzero"/><path fill="#0c0c0c" d="M 306.121094 229.09375 C 305.328125 229.09375 304.628906 228.527344 304.488281 227.71875 C 304.328125 226.816406 304.929688 225.957031 305.835938 225.796875 L 310.742188 224.929688 C 311.636719 224.757812 312.503906 225.371094 312.664062 226.277344 C 312.824219 227.179688 312.222656 228.039062 311.316406 228.199219 L 306.410156 229.066406 C 306.3125 229.085938 306.214844 229.09375 306.121094 229.09375 " fill-opacity="1" fill-rule="nonzero"/><path fill="#0c0c0c" d="M 191.253906 104.675781 C 190.472656 104.675781 189.777344 104.125 189.625 103.328125 C 189.453125 102.429688 190.042969 101.558594 190.945312 101.386719 L 199.097656 99.816406 C 199.996094 99.636719 200.867188 100.230469 201.042969 101.132812 C 201.214844 102.035156 200.628906 102.902344 199.726562 103.078125 L 191.570312 104.648438 C 191.464844 104.667969 191.359375 104.675781 191.253906 104.675781 Z M 174.941406 107.816406 C 174.164062 107.816406 173.46875 107.261719 173.3125 106.46875 C 173.140625 105.570312 173.730469 104.699219 174.628906 104.523438 L 182.785156 102.953125 C 183.695312 102.78125 184.558594 103.371094 184.730469 104.273438 C 184.90625 105.171875 184.316406 106.042969 183.414062 106.214844 L 175.261719 107.785156 C 175.152344 107.808594 175.046875 107.816406 174.941406 107.816406 Z M 158.632812 110.957031 C 157.851562 110.957031 157.15625 110.402344 157.003906 109.609375 C 156.832031 108.707031 157.421875 107.835938 158.324219 107.664062 L 166.476562 106.09375 C 167.378906 105.917969 168.25 106.507812 168.421875 107.410156 C 168.59375 108.3125 168.007812 109.183594 167.105469 109.355469 L 158.949219 110.925781 C 158.84375 110.945312 158.738281 110.957031 158.632812 110.957031 " fill-opacity="1" fill-rule="nonzero"/><g fill="#000000" fill-opacity="1"><g transform="translate(75.941039, 213.97263)"><g><path d="M 19.90625 -2.703125 C 17.4375 -2.296875 15.117188 -2.328125 12.953125 -2.796875 C 10.796875 -3.273438 8.878906 -4.09375 7.203125 -5.25 C 5.523438 -6.414062 4.132812 -7.878906 3.03125 -9.640625 C 1.925781 -11.410156 1.191406 -13.375 0.828125 -15.53125 L 0.640625 -16.734375 C 0.222656 -19.179688 0.234375 -21.484375 0.671875 -23.640625 C 1.109375 -25.804688 1.894531 -27.738281 3.03125 -29.4375 C 4.175781 -31.144531 5.632812 -32.5625 7.40625 -33.6875 C 9.175781 -34.820312 11.179688 -35.578125 13.421875 -35.953125 C 15.742188 -36.335938 17.878906 -36.296875 19.828125 -35.828125 C 21.773438 -35.367188 23.492188 -34.550781 24.984375 -33.375 C 26.472656 -32.195312 27.703125 -30.6875 28.671875 -28.84375 C 29.648438 -27 30.335938 -24.894531 30.734375 -22.53125 L 31.328125 -19.015625 L 9.5 -15.375 C 9.820312 -14.320312 10.300781 -13.378906 10.9375 -12.546875 C 11.582031 -11.722656 12.335938 -11.046875 13.203125 -10.515625 C 14.066406 -9.992188 15.015625 -9.632812 16.046875 -9.4375 C 17.085938 -9.238281 18.179688 -9.238281 19.328125 -9.4375 C 20.140625 -9.570312 20.929688 -9.785156 21.703125 -10.078125 C 22.484375 -10.367188 23.210938 -10.726562 23.890625 -11.15625 C 24.578125 -11.582031 25.195312 -12.078125 25.75 -12.640625 C 26.3125 -13.203125 26.78125 -13.828125 27.15625 -14.515625 L 32.046875 -10.75 C 31.660156 -9.925781 31.109375 -9.09375 30.390625 -8.25 C 29.679688 -7.40625 28.8125 -6.617188 27.78125 -5.890625 C 26.757812 -5.171875 25.585938 -4.523438 24.265625 -3.953125 C 22.953125 -3.390625 21.5 -2.972656 19.90625 -2.703125 Z M 14.46875 -29.25 C 13.550781 -29.09375 12.734375 -28.785156 12.015625 -28.328125 C 11.296875 -27.867188 10.691406 -27.28125 10.203125 -26.5625 C 9.722656 -25.851562 9.351562 -25.039062 9.09375 -24.125 C 8.84375 -23.207031 8.710938 -22.207031 8.703125 -21.125 L 22.265625 -23.375 L 22.15625 -24.03125 C 21.96875 -24.894531 21.65625 -25.6875 21.21875 -26.40625 C 20.789062 -27.132812 20.253906 -27.734375 19.609375 -28.203125 C 18.960938 -28.679688 18.207031 -29.019531 17.34375 -29.21875 C 16.488281 -29.414062 15.53125 -29.425781 14.46875 -29.25 Z M 14.46875 -29.25 "/></g></g></g><g fill="#000000" fill-opacity="1"><g transform="translate(112.511286, 207.877013)"><g><path d="M 30.5625 -21.3125 L 5.78125 -17.1875 L 4.65625 -23.875 L 29.4375 -28 Z M 30.5625 -21.3125 "/></g></g></g><g fill="#000000" fill-opacity="1"><g transform="translate(149.081533, 201.781396)"><g><path d="M 32.84375 -10.671875 C 32.414062 -9.929688 31.789062 -9.144531 30.96875 -8.3125 C 30.144531 -7.476562 29.140625 -6.679688 27.953125 -5.921875 C 26.773438 -5.171875 25.414062 -4.492188 23.875 -3.890625 C 22.34375 -3.285156 20.664062 -2.832031 18.84375 -2.53125 C 16.382812 -2.125 14.085938 -2.1875 11.953125 -2.71875 C 9.828125 -3.257812 7.925781 -4.238281 6.25 -5.65625 C 4.570312 -7.070312 3.148438 -8.910156 1.984375 -11.171875 C 0.816406 -13.441406 -0.015625 -16.09375 -0.515625 -19.125 L -1.5 -25.015625 C -2.007812 -28.054688 -2.0625 -30.835938 -1.65625 -33.359375 C -1.25 -35.878906 -0.476562 -38.09375 0.65625 -40 C 1.800781 -41.90625 3.253906 -43.453125 5.015625 -44.640625 C 6.785156 -45.828125 8.796875 -46.609375 11.046875 -46.984375 C 13.484375 -47.390625 15.660156 -47.4375 17.578125 -47.125 C 19.492188 -46.820312 21.171875 -46.191406 22.609375 -45.234375 C 24.054688 -44.285156 25.273438 -43.035156 26.265625 -41.484375 C 27.253906 -39.929688 28.023438 -38.132812 28.578125 -36.09375 L 20.421875 -34.734375 C 19.773438 -36.910156 18.828125 -38.46875 17.578125 -39.40625 C 16.328125 -40.351562 14.59375 -40.640625 12.375 -40.265625 C 11.300781 -40.085938 10.351562 -39.648438 9.53125 -38.953125 C 8.707031 -38.265625 8.046875 -37.332031 7.546875 -36.15625 C 7.054688 -34.988281 6.738281 -33.597656 6.59375 -31.984375 C 6.457031 -30.367188 6.5625 -28.535156 6.90625 -26.484375 L 7.90625 -20.53125 C 8.582031 -16.488281 9.765625 -13.5 11.453125 -11.5625 C 13.148438 -9.632812 15.375 -8.890625 18.125 -9.328125 C 18.769531 -9.441406 19.398438 -9.597656 20.015625 -9.796875 C 20.640625 -9.992188 21.210938 -10.226562 21.734375 -10.5 C 22.265625 -10.78125 22.722656 -11.066406 23.109375 -11.359375 C 23.492188 -11.648438 23.773438 -11.945312 23.953125 -12.25 L 22.671875 -20.109375 L 15.5 -18.921875 L 14.46875 -25.171875 L 29.96875 -27.75 Z M 32.84375 -10.671875 "/></g></g></g><g fill="#000000" fill-opacity="1"><g transform="translate(185.65178, 195.685778)"><g><path d="M 19.90625 -2.703125 C 17.4375 -2.296875 15.117188 -2.328125 12.953125 -2.796875 C 10.796875 -3.273438 8.878906 -4.09375 7.203125 -5.25 C 5.523438 -6.414062 4.132812 -7.878906 3.03125 -9.640625 C 1.925781 -11.410156 1.191406 -13.375 0.828125 -15.53125 L 0.640625 -16.734375 C 0.222656 -19.179688 0.234375 -21.484375 0.671875 -23.640625 C 1.109375 -25.804688 1.894531 -27.738281 3.03125 -29.4375 C 4.175781 -31.144531 5.632812 -32.5625 7.40625 -33.6875 C 9.175781 -34.820312 11.179688 -35.578125 13.421875 -35.953125 C 15.742188 -36.335938 17.878906 -36.296875 19.828125 -35.828125 C 21.773438 -35.367188 23.492188 -34.550781 24.984375 -33.375 C 26.472656 -32.195312 27.703125 -30.6875 28.671875 -28.84375 C 29.648438 -27 30.335938 -24.894531 30.734375 -22.53125 L 31.328125 -19.015625 L 9.5 -15.375 C 9.820312 -14.320312 10.300781 -13.378906 10.9375 -12.546875 C 11.582031 -11.722656 12.335938 -11.046875 13.203125 -10.515625 C 14.066406 -9.992188 15.015625 -9.632812 16.046875 -9.4375 C 17.085938 -9.238281 18.179688 -9.238281 19.328125 -9.4375 C 20.140625 -9.570312 20.929688 -9.785156 21.703125 -10.078125 C 22.484375 -10.367188 23.210938 -10.726562 23.890625 -11.15625 C 24.578125 -11.582031 25.195312 -12.078125 25.75 -12.640625 C 26.3125 -13.203125 26.78125 -13.828125 27.15625 -14.515625 L 32.046875 -10.75 C 31.660156 -9.925781 31.109375 -9.09375 30.390625 -8.25 C 29.679688 -7.40625 28.8125 -6.617188 27.78125 -5.890625 C 26.757812 -5.171875 25.585938 -4.523438 24.265625 -3.953125 C 22.953125 -3.390625 21.5 -2.972656 19.90625 -2.703125 Z M 14.46875 -29.25 C 13.550781 -29.09375 12.734375 -28.785156 12.015625 -28.328125 C 11.296875 -27.867188 10.691406 -27.28125 10.203125 -26.5625 C 9.722656 -25.851562 9.351562 -25.039062 9.09375 -24.125 C 8.84375 -23.207031 8.710938 -22.207031 8.703125 -21.125 L 22.265625 -23.375 L 22.15625 -24.03125 C 21.96875 -24.894531 21.65625 -25.6875 21.21875 -26.40625 C 20.789062 -27.132812 20.253906 -27.734375 19.609375 -28.203125 C 18.960938 -28.679688 18.207031 -29.019531 17.34375 -29.21875 C 16.488281 -29.414062 15.53125 -29.425781 14.46875 -29.25 Z M 14.46875 -29.25 "/></g></g></g><g fill="#000000" fill-opacity="1"><g transform="translate(222.222026, 189.590161)"><g><path d="M 19.90625 -2.703125 C 17.4375 -2.296875 15.117188 -2.328125 12.953125 -2.796875 C 10.796875 -3.273438 8.878906 -4.09375 7.203125 -5.25 C 5.523438 -6.414062 4.132812 -7.878906 3.03125 -9.640625 C 1.925781 -11.410156 1.191406 -13.375 0.828125 -15.53125 L 0.640625 -16.734375 C 0.222656 -19.179688 0.234375 -21.484375 0.671875 -23.640625 C 1.109375 -25.804688 1.894531 -27.738281 3.03125 -29.4375 C 4.175781 -31.144531 5.632812 -32.5625 7.40625 -33.6875 C 9.175781 -34.820312 11.179688 -35.578125 13.421875 -35.953125 C 15.742188 -36.335938 17.878906 -36.296875 19.828125 -35.828125 C 21.773438 -35.367188 23.492188 -34.550781 24.984375 -33.375 C 26.472656 -32.195312 27.703125 -30.6875 28.671875 -28.84375 C 29.648438 -27 30.335938 -24.894531 30.734375 -22.53125 L 31.328125 -19.015625 L 9.5 -15.375 C 9.820312 -14.320312 10.300781 -13.378906 10.9375 -12.546875 C 11.582031 -11.722656 12.335938 -11.046875 13.203125 -10.515625 C 14.066406 -9.992188 15.015625 -9.632812 16.046875 -9.4375 C 17.085938 -9.238281 18.179688 -9.238281 19.328125 -9.4375 C 20.140625 -9.570312 20.929688 -9.785156 21.703125 -10.078125 C 22.484375 -10.367188 23.210938 -10.726562 23.890625 -11.15625 C 24.578125 -11.582031 25.195312 -12.078125 25.75 -12.640625 C 26.3125 -13.203125 26.78125 -13.828125 27.15625 -14.515625 L 32.046875 -10.75 C 31.660156 -9.925781 31.109375 -9.09375 30.390625 -8.25 C 29.679688 -7.40625 28.8125 -6.617188 27.78125 -5.890625 C 26.757812 -5.171875 25.585938 -4.523438 24.265625 -3.953125 C 22.953125 -3.390625 21.5 -2.972656 19.90625 -2.703125 Z M 14.46875 -29.25 C 13.550781 -29.09375 12.734375 -28.785156 12.015625 -28.328125 C 11.296875 -27.867188 10.691406 -27.28125 10.203125 -26.5625 C 9.722656 -25.851562 9.351562 -25.039062 9.09375 -24.125 C 8.84375 -23.207031 8.710938 -22.207031 8.703125 -21.125 L 22.265625 -23.375 L 22.15625 -24.03125 C 21.96875 -24.894531 21.65625 -25.6875 21.21875 -26.40625 C 20.789062 -27.132812 20.253906 -27.734375 19.609375 -28.203125 C 18.960938 -28.679688 18.207031 -29.019531 17.34375 -29.21875 C 16.488281 -29.414062 15.53125 -29.425781 14.46875 -29.25 Z M 14.46875 -29.25 "/></g></g></g><g fill="#000000" fill-opacity="1"><g transform="translate(258.792273, 183.494544)"><g><path d="M 14.09375 -16.015625 L 10.921875 -11.90625 L 12.5625 -2.09375 L 4.28125 -0.71875 L -3.34375 -46.4375 L 4.9375 -47.8125 L 9.296875 -21.6875 L 11.328125 -24.953125 L 18.59375 -36.21875 L 28.53125 -37.875 L 18.640625 -22.40625 L 35.609375 -5.9375 L 25.453125 -4.234375 Z M 14.09375 -16.015625 "/></g></g></g><g fill="#0c0c0c" fill-opacity="1"><g transform="translate(176.218207, 278.748925)"><g><path d="M 12.171875 -13.734375 L 9.90625 -13.359375 L 9.078125 -15.265625 C 8.648438 -15.554688 8.140625 -15.757812 7.546875 -15.875 C 6.953125 -15.988281 6.304688 -15.988281 5.609375 -15.875 C 4.523438 -15.6875 3.765625 -15.3125 3.328125 -14.75 C 2.890625 -14.195312 2.726562 -13.59375 2.84375 -12.9375 C 2.945312 -12.28125 3.257812 -11.796875 3.78125 -11.484375 C 4.300781 -11.179688 5.296875 -11.003906 6.765625 -10.953125 C 8.929688 -10.847656 10.585938 -10.492188 11.734375 -9.890625 C 12.890625 -9.285156 13.578125 -8.335938 13.796875 -7.046875 C 14.035156 -5.566406 13.632812 -4.269531 12.59375 -3.15625 C 11.550781 -2.050781 10.070312 -1.335938 8.15625 -1.015625 C 6.894531 -0.804688 5.738281 -0.765625 4.6875 -0.890625 C 3.632812 -1.023438 2.664062 -1.304688 1.78125 -1.734375 L 1.140625 -5.5 L 3.421875 -5.890625 L 4.375 -3.75 C 4.757812 -3.488281 5.265625 -3.332031 5.890625 -3.28125 C 6.515625 -3.238281 7.140625 -3.269531 7.765625 -3.375 C 8.828125 -3.5625 9.628906 -3.921875 10.171875 -4.453125 C 10.710938 -4.992188 10.925781 -5.617188 10.8125 -6.328125 C 10.695312 -6.984375 10.347656 -7.484375 9.765625 -7.828125 C 9.191406 -8.179688 8.175781 -8.398438 6.71875 -8.484375 C 4.625 -8.585938 3 -8.929688 1.84375 -9.515625 C 0.6875 -10.097656 0.00390625 -11.035156 -0.203125 -12.328125 C -0.429688 -13.679688 -0.0507812 -14.925781 0.9375 -16.0625 C 1.9375 -17.207031 3.363281 -17.9375 5.21875 -18.25 C 6.46875 -18.457031 7.617188 -18.476562 8.671875 -18.3125 C 9.734375 -18.15625 10.644531 -17.84375 11.40625 -17.375 Z M 12.171875 -13.734375 "/></g></g></g><g fill="#0c0c0c" fill-opacity="1"><g transform="translate(193.679731, 275.838396)"><g><path d="M 3.203125 -21.71875 L 3.875 -17.703125 L 7.015625 -18.21875 L 7.390625 -15.984375 L 4.25 -15.46875 L 5.921875 -5.390625 C 6.054688 -4.609375 6.3125 -4.082031 6.6875 -3.8125 C 7.0625 -3.550781 7.519531 -3.46875 8.0625 -3.5625 C 8.3125 -3.601562 8.597656 -3.675781 8.921875 -3.78125 C 9.253906 -3.882812 9.53125 -3.976562 9.75 -4.0625 L 10.515625 -2.078125 C 10.253906 -1.835938 9.859375 -1.609375 9.328125 -1.390625 C 8.796875 -1.179688 8.25 -1.035156 7.6875 -0.953125 C 6.457031 -0.742188 5.421875 -0.945312 4.578125 -1.5625 C 3.734375 -2.1875 3.175781 -3.296875 2.90625 -4.890625 L 1.234375 -14.96875 L -1.390625 -14.53125 L -1.765625 -16.765625 L 0.859375 -17.203125 L 0.1875 -21.21875 Z M 3.203125 -21.71875 "/></g></g></g><g fill="#0c0c0c" fill-opacity="1"><g transform="translate(206.631038, 273.679641)"><g><path d="M -0.015625 -8.703125 C -0.429688 -11.148438 -0.109375 -13.273438 0.953125 -15.078125 C 2.015625 -16.890625 3.6875 -17.988281 5.96875 -18.375 C 8.257812 -18.75 10.203125 -18.253906 11.796875 -16.890625 C 13.398438 -15.535156 14.410156 -13.628906 14.828125 -11.171875 L 14.875 -10.828125 C 15.289062 -8.347656 14.960938 -6.207031 13.890625 -4.40625 C 12.816406 -2.613281 11.140625 -1.523438 8.859375 -1.140625 C 6.554688 -0.753906 4.613281 -1.242188 3.03125 -2.609375 C 1.445312 -3.972656 0.445312 -5.890625 0.03125 -8.359375 Z M 3.046875 -8.859375 C 3.347656 -7.085938 3.960938 -5.691406 4.890625 -4.671875 C 5.816406 -3.648438 7.007812 -3.257812 8.46875 -3.5 C 9.90625 -3.738281 10.898438 -4.492188 11.453125 -5.765625 C 12.015625 -7.035156 12.144531 -8.554688 11.84375 -10.328125 L 11.796875 -10.671875 C 11.503906 -12.398438 10.890625 -13.78125 9.953125 -14.8125 C 9.015625 -15.84375 7.816406 -16.238281 6.359375 -16 C 4.910156 -15.757812 3.914062 -15 3.375 -13.71875 C 2.832031 -12.4375 2.707031 -10.929688 3 -9.203125 Z M 3.046875 -8.859375 "/></g></g></g><g fill="#0c0c0c" fill-opacity="1"><g transform="translate(225.703352, 270.500621)"><g><path d="M -1.0625 -14.890625 L -1.390625 -16.828125 L 3.796875 -17.6875 L 4.5 -15.328125 C 4.820312 -16.265625 5.285156 -17.03125 5.890625 -17.625 C 6.503906 -18.21875 7.257812 -18.585938 8.15625 -18.734375 C 8.394531 -18.773438 8.640625 -18.796875 8.890625 -18.796875 C 9.148438 -18.804688 9.34375 -18.800781 9.46875 -18.78125 L 9.5625 -15.921875 L 7.8125 -15.71875 C 7.007812 -15.59375 6.367188 -15.296875 5.890625 -14.828125 C 5.421875 -14.359375 5.09375 -13.757812 4.90625 -13.03125 L 6.5 -3.5 L 9.0625 -3.484375 L 9.390625 -1.5625 L 1.375 -0.234375 L 1.046875 -2.15625 L 3.484375 -3 L 1.5 -14.859375 Z M -1.0625 -14.890625 "/></g></g></g><g fill="#0c0c0c" fill-opacity="1"><g transform="translate(240.142726, 268.093832)"><g><path d="M 8.984375 -1.15625 C 6.671875 -0.769531 4.707031 -1.234375 3.09375 -2.546875 C 1.476562 -3.867188 0.46875 -5.757812 0.0625 -8.21875 L -0.046875 -8.890625 C -0.441406 -11.253906 -0.0703125 -13.335938 1.0625 -15.140625 C 2.207031 -16.941406 3.75 -18.003906 5.6875 -18.328125 C 7.914062 -18.691406 9.710938 -18.296875 11.078125 -17.140625 C 12.453125 -15.984375 13.328125 -14.28125 13.703125 -12.03125 L 14.015625 -10.140625 L 3.25 -8.34375 L 3.21875 -8.265625 C 3.507812 -6.671875 4.128906 -5.421875 5.078125 -4.515625 C 6.023438 -3.617188 7.195312 -3.285156 8.59375 -3.515625 C 9.625 -3.691406 10.5 -3.988281 11.21875 -4.40625 C 11.945312 -4.820312 12.550781 -5.34375 13.03125 -5.96875 L 14.546875 -4.1875 C 14.046875 -3.519531 13.335938 -2.90625 12.421875 -2.34375 C 11.503906 -1.78125 10.359375 -1.382812 8.984375 -1.15625 Z M 6.078125 -15.953125 C 5.054688 -15.773438 4.257812 -15.195312 3.6875 -14.21875 C 3.113281 -13.25 2.851562 -12.109375 2.90625 -10.796875 L 2.953125 -10.71875 L 10.59375 -12 L 10.53125 -12.40625 C 10.320312 -13.59375 9.835938 -14.53125 9.078125 -15.21875 C 8.316406 -15.90625 7.316406 -16.148438 6.078125 -15.953125 Z M 6.078125 -15.953125 "/></g></g></g></svg>